# xmcd
#
# Track frame offsets: 
#        150
#        16362
#        28778
#        41090
#        53586
#        69494
#        86027
#        97215
#
# Disc length: 1423 seconds
#
# Revision: 0
# Processed by: cddbd v1.5.2PL0 Copyright (c) Steve Scherf et al.
# Submitted via: ExactAudioCopy v0.99pb4
#
DISCID=67058d08
DTITLE=Boots Randolph - The Best of Boots Randolph
DYEAR=1984
DGENRE=Instrumental
TTITLE0=Misty
TTITLE1=Jackson
TTITLE2=Big Daddy
TTITLE3=Release Me
TTITLE4=People
TTITLE5=Honky tonk
TTITLE6=A String of Pearls
TTITLE7=Night Train
EXTD=
EXTT0=
EXTT1=
EXTT2=
EXTT3=
EXTT4=
EXTT5=
EXTT6=
EXTT7=
PLAYORDER=
